<?xml version="1.0" encoding="utf-8"?>
<!-- Generator: Adobe Illustrator 21.0.0, SVG Export Plug-In . SVG Version: 6.00 Build 0)  -->
<svg version="1.1" id="Layer_1" xmlns="http://www.w3.org/2000/svg" xmlns:xlink="http://www.w3.org/1999/xlink" x="0px" y="0px"
	 viewBox="0 0 195 195" style="enable-background:new 0 0 195 195;" xml:space="preserve">
<title>Monogram</title>
<desc>Created with Sketch.</desc>
<g id="Page-1">
	<g id="Monogram">
		<path id="Shape" d="M24.2,51.4c0.2-2.3-0.7-4.6-2.4-6.2L4.1,23.9v-3.2h55l42.5,93.2l37.4-93.2h52.4v3.2l-15.1,14.5
			c-1.3,1-2,2.6-1.7,4.2v106.6c-0.3,1.6,0.4,3.3,1.7,4.2l14.8,14.5v3.2h-74.4v-3.2l15.3-14.9c1.5-1.5,1.5-1.9,1.5-4.2V62.8
			L90.8,170.9h-5.8L35.5,62.8v72.5c-0.4,3,0.6,6.1,2.7,8.3l19.9,24.2v3.2H1.7v-3.2l19.9-24.2c2.1-2.2,3.1-5.3,2.6-8.3V51.4z"/>
	</g>
</g>
</svg>
