<?xml version="1.0" encoding="utf-8"?>
<!-- Generator: Adobe Illustrator 21.1.0, SVG Export Plug-In . SVG Version: 6.00 Build 0)  -->
<svg version="1.1" id="Calque_1" xmlns="http://www.w3.org/2000/svg" xmlns:xlink="http://www.w3.org/1999/xlink" x="0px" y="0px"
	 viewBox="0 0 1217.2 364.8" style="enable-background:new 0 0 1217.2 364.8;" xml:space="preserve">
<style type="text/css">
	.st0{fill:#5F8BF6;}
	.st1{fill:#111116;}
	.st2{fill:#F81E56;}
	.st3{fill:#32F994;}
</style>
<g>
	<path class="st0" d="M347.7,183.4c0,48.7,0,97.3,0,146c0,7.2-2.8,12.5-9.2,15.9c-2.5,1.3-5.1,1.4-7.8,1.4c-27.3,0-54.7,0-82,0
		c-69.1,0-138.1-0.1-207.2,0.1c-10.9,0-17.9-7.7-17.9-18c0.2-97.2,0.1-194.5,0.1-291.7c0-8.8,4.5-15.2,12.1-17
		c1.6-0.4,3.1-0.4,4.7-0.4c96.7,0,193.5,0,290.2,0c10.4,0,16.9,6.5,17,17C347.7,85.6,347.7,134.5,347.7,183.4z M250.8,336.1
		c3.8,0,7.6,0,11.4,0c0.9,0,1.8,0.1,2.7,0.1c21.6,0,43.2,0,64.7,0c5.9,0,7.6-1.7,7.6-7.6c0-69.2,0-138.3,0-207.5
		c0-28.2,0-56.3,0-84.5c0-4.5-1.9-6.5-6.3-6.5c-96.7,0-193.5,0-290.2,0c-4.5,0-6.5,2-6.5,6.6c0,22.4,0,44.8,0,67.2
		c0,0.7,0.1,1.3,0.1,2c0,3.8,0,7.7,0,11.5c0,0.7-0.1,1.3-0.1,2c0,69.9,0,139.8,0,209.7c0,5,1.9,7,6.9,7c69.1,0,138.1,0,207.2,0
		C249.1,336.1,249.9,336.1,250.8,336.1z"/>
	<path class="st1" d="M941.6,240.5c3.4-8.2,6.8-16.4,10.1-24.5c13.7-33.2,27.5-66.5,41.2-99.7c0.5-1.1,1-1.8,2.3-1.7
		c2.8,0.1,5.7,0,8.5,0c1.4,0,2,0.6,1.9,2c0,0.5,0,1,0,1.5c0,42.9,0,85.8,0,128.7c0,3.5,0,3.5-3.6,3.5c-4.8,0-4.8,0-4.8-4.7
		c0-38.2,0-76.3,0-114.5c0-1.6,0.4-3.3-0.7-5.3c-1.7,4-3.2,7.5-4.6,11.1c-11.6,28.3-23.2,56.6-34.8,84.9
		c-3.5,8.6-7.1,17.2-10.5,25.8c-0.8,2-1.8,2.8-4,2.7c-6.6-0.3-4.9,1.1-7.5-5.2c-14.8-35.7-29.6-71.4-44.4-107
		c-1.7-4-3.4-8.1-5.1-12.2c-1,0.8-0.7,1.7-0.7,2.5c0,39.6,0,79.1,0.1,118.7c0,2.6-0.7,3.3-3.2,3.2c-5.1-0.2-5.1,0-5.1-5.2
		c0-42.5,0-85-0.1-127.5c0-2.6,0.7-3.4,3.2-3.1c2.9,0.3,6.3-1.1,8.5,0.6c2.1,1.6,2.5,4.9,3.6,7.5c11.8,28.3,23.7,56.6,35.5,84.8
		c4.3,10.3,8.6,20.5,12.9,30.8C940.4,239,940.6,239.8,941.6,240.5z"/>
	<path class="st1" d="M704.2,238.3c0-1,0-2,0-2.9c0-39.3,0-78.7-0.1-118c0-2.4,0.7-3,2.9-2.9c6.5,0.2,5.5-0.7,5.5,5.6
		c0,42.2,0,84.5,0,126.7c0,3.3-0.1,3-3.2,3.4c-5.1,0.7-7.8-1.5-10.6-5.6c-26.6-39.2-53.4-78.2-80.1-117.3c-0.3-0.4-0.6-0.8-0.9-1.2
		c-0.2-0.3-0.4-0.6-0.8-0.5c-0.4,0.1-0.5,0.4-0.5,0.8c0,0.4,0,0.8,0,1.2c0,39.7,0,79.3,0,119c0,3.4,0,3.4-3.4,3.4
		c-4.9,0-4.9,0-4.9-5c0-42.7,0-85.3,0-128c0-2,0.5-2.5,2.6-2.8c5.8-0.8,9,1.6,12.2,6.3c26.1,38.6,52.6,76.9,78.9,115.3
		c0.6,0.8,1.2,1.6,1.8,2.3C703.9,238.5,704.1,238.4,704.2,238.3z"/>
	<path class="st1" d="M1083.3,182.2c0-21.7,0-43.5,0-65.2c0-1.8,0.4-2.5,2.3-2.5c28.6,0.1,57.2,0.1,85.7,0c2.1,0,2.9,0.6,2.8,2.8
		c-0.2,4.4,0,4.4-4.4,4.4c-25.2,0-50.3,0-75.5-0.1c-2.2,0-2.7,0.5-2.7,2.7c0.1,16.5,0.1,33,0,49.5c0,1.9,0.5,2.3,2.3,2.3
		c24.1-0.1,48.2,0,72.2-0.1c2.3,0,3.2,0.4,3,2.9c-0.2,4.2-0.1,4.3-4.3,4.3c-23.5,0-47,0-70.5-0.1c-2.4,0-2.9,0.7-2.8,2.9
		c0.1,17.8,0.1,35.7,0.1,53.5c0,3.3,0,3.3,3.2,3.3c25.9,0,51.8,0,77.7,0c1.9,0,2.6,0.4,2.5,2.4c-0.2,4.9,0,4.9-4.9,4.9
		c-28,0-56,0-84,0.1c-2.4,0-3-0.7-3-3.1C1083.4,225.6,1083.3,203.9,1083.3,182.2z"/>
	<path class="st1" d="M486.7,114.6c0.7,0,1.5,0.1,2.2,0c1.7-0.2,2.5,0.5,3.1,2.1c8.8,22.5,17.7,45,26.5,67.5
		c8.2,21,16.5,41.9,24.7,62.9c1.3,3.2,1.3,3.2-2.2,3.2c-6.8-0.1-4.9,1.1-7.4-5.2c-4.8-12-9.5-24.1-14.1-36.2
		c-0.7-1.7-1.6-2.2-3.3-2.1c-19.7,0.1-39.5,0.1-59.2,0c-2.3,0-3.3,0.7-4.2,2.8c-5,12.9-10.1,25.7-15.1,38.5
		c-0.6,1.7-1.5,2.3-3.3,2.3c-6.6,0-6.6,0.1-4.2-5.9c15.1-37.9,30.3-75.7,45.5-113.6c1.6-4,3.2-8,4.8-12
		C482.2,114.6,482.2,114.6,486.7,114.6z M486.2,199.6c9,0,18-0.1,27,0c2.2,0,2.8-0.4,2-2.6c-9.1-24-18.2-48-27.2-72
		c-0.2-0.6-0.2-1.5-1-1.5c-0.9,0-0.8,1-1,1.5c-9.5,24.1-18.9,48.2-28.4,72.3c-0.8,1.9-0.4,2.2,1.5,2.2
		C468.1,199.5,477.2,199.6,486.2,199.6z"/>
	<path class="st1" d="M798.7,182.5c0,21.7,0,43.3,0,65c0,2.1-0.3,2.9-2.6,2.8c-5.8-0.2-5.8-0.1-5.8-5.8c0-42.3,0-84.6,0-127
		c0-2.2,0.4-3,2.8-2.9c5.6,0.2,5.6,0.1,5.6,5.7C798.7,141,798.7,161.7,798.7,182.5z"/>
	<path class="st2" d="M250.8,336.1c-7-16.7-15.2-32.8-24.4-48.3c-0.3-0.5-0.6-1-1.2-1.2c3.4-1.6,6.7-3.1,10.1-4.7
		c3.9,7.1,7.9,14.2,11.7,21.4c5.5,10.7,10.6,21.6,15.2,32.8C258.4,336.1,254.6,336.1,250.8,336.1z"/>
	<path class="st2" d="M83.3,142.8c-15.1-9.2-30.6-17.3-46.8-24.4c-0.8-0.3-1.5-0.6-2.3-0.9c0-3.8,0-7.7,0-11.5
		c18.4,7.8,36.2,16.8,53.4,27.2C86.2,136.4,84.8,139.6,83.3,142.8z"/>
	<path class="st3" d="M83.3,142.8c1.4-3.2,2.9-6.4,4.3-9.7c3.3-6.3,6.9-12.4,11.4-18c4.4-5.5,8.9-10.7,14.3-15.4
		c7.9-6.9,16.4-12.7,25.8-17.1c11.1-5.2,22.8-8.3,35.1-9.6c21.9-2.3,42.5,1.7,61.9,11.8c17,8.8,30.7,21.4,41.2,37.5
		c9.4,14.4,15.1,30.1,17.3,47.1c2.6,21-0.6,41.2-9.4,60.4c-6.3,13.6-15,25.5-26.1,35.6c-7.2,6.5-15.1,12-23.8,16.4
		c-3.4,1.6-6.7,3.1-10.1,4.7c-6.4,2.2-12.8,4.2-19.4,5.6c-9.2,1.8-18.4,2.1-27.7,1.6c-19.8-1.1-37.8-7.7-54.2-18.7
		c-6.2-4.2-12-9-17.1-14.4c-9.7-10.4-17.4-22-22.7-35.2c-3.5-8.7-6.1-17.6-7.3-26.8c-1-7.6-1-15.2-0.6-22.9
		C76.7,164.3,79.5,153.4,83.3,142.8z M92.6,148.7c-0.3,0.6-0.6,1.2-0.8,1.8c-5.8,17.3-7.2,35-3.4,52.9c5.1,24.2,17.3,44.1,36.8,59.4
		c8.1,6.3,16.9,11.4,26.6,14.8c13,4.6,26.5,6.9,40.4,5.7c9.5-0.8,18.7-2.5,27.6-6.1c3.4-1.1,6.8-2.3,9.8-4.4
		c8.2-3.8,15.5-8.9,22.1-14.9c5.8-5.3,11-11.1,15.4-17.6c12.8-18.8,18.5-39.6,17.5-62.3c-0.4-8.3-1.8-16.5-4.3-24.5
		c-5.9-18.9-16.4-34.7-31.6-47.5c-16.8-14.1-36.3-21.3-58-22.8c-6.3-0.4-12.5,0.1-18.8,0.9c-9.2,1.1-18.1,3.6-26.5,7.4
		c-14.8,6.6-27.3,16.2-37.3,29c-4.5,5.7-8.6,11.7-11.5,18.4C95.1,142,93.6,145.2,92.6,148.7z"/>
	<path class="st2" d="M219.9,277.1c-8.7-13.9-18.3-27.2-28.7-39.9c-28.2-34.7-61-64.3-98.6-88.5c0.9-3.4,2.4-6.7,4.1-9.8
		c13,8.2,25.6,17.2,37.6,26.8c22.6,18.2,43.1,38.5,61.7,60.8c12,14.3,22.9,29.5,33,45.2c0.2,0.3,0.5,0.7,0.7,1
		C226.7,274.7,223.3,275.9,219.9,277.1z"/>
</g>
</svg>
