<?xml version="1.0" encoding="utf-8"?>
<!-- Generator: Adobe Illustrator 21.1.0, SVG Export Plug-In . SVG Version: 6.00 Build 0)  -->
<svg version="1.1" id="Calque_1" xmlns="http://www.w3.org/2000/svg" xmlns:xlink="http://www.w3.org/1999/xlink" x="0px" y="0px"
	 viewBox="0 0 400 340" style="enable-background:new 0 0 400 340;" xml:space="preserve">
<style type="text/css">
	.st0{fill-opacity:0.45;}
	.st1{fill:#7F7F7F;}
</style>
<title  id="middleman-logo__title">Middleman</title>
<path class="st0" d="M0,40L200,0v30L0,60V40z"/>
<path class="st1" d="M200,0l200,40v20L200,30V0z"/>
<path class="st0" d="M0,78v184l45,5V152l45,83l47-83v129l53,7V52l-57,8l-43,83L47,73L0,78z"/>
<path class="st1" d="M400,78v184l-45,5V152l-45,83l-47-83v129l-53,7V52l57,8l43,83l43-70L400,78z"/>
<path class="st0" d="M0,300l200,40v-30L0,280V300z"/>
<path class="st1" d="M200,340l200-40v-20l-200,30V340z"/>
</svg>
