<?xml version="1.0" encoding="utf-8"?>
<!-- Generator: Adobe Illustrator 21.1.0, SVG Export Plug-In . SVG Version: 6.00 Build 0)  -->
<svg version="1.1" id="Calque_1" xmlns="http://www.w3.org/2000/svg" xmlns:xlink="http://www.w3.org/1999/xlink" x="0px" y="0px"
	 viewBox="0 0 400 400" style="enable-background:new 0 0 400 400;" xml:space="preserve">
<style type="text/css">
	.st0{fill:#61DAFB;}
</style>
<g>
	<path class="st0" d="M395.5,200c0-25.8-32.4-50.4-82.2-65.7c11.5-50.7,6.4-91-16.1-103.9c-5.1-3-11.2-4.5-17.9-4.5v17.9
		c3.7,0,6.5,0.6,9.1,2.1c10.8,6.2,15.5,29.8,11.8,60.3c-0.8,7.5-2.2,15.3-4,23.4c-15.6-3.8-32.7-6.7-50.6-8.6
		c-10.7-14.7-21.9-28.1-33.2-39.9c26-24.1,50.4-37.3,67-37.3V25.9c-21.9,0-50.6,15.6-79.6,42.7c-29.2-26.9-57.9-42.4-79.8-42.4v17.7
		c16.4,0,41,13.1,67,37.1c-11.2,11.6-22.3,25-32.9,39.7c-18,1.9-35.1,4.8-50.7,8.8c-1.8-8-3.2-15.6-4.1-23.1
		c-3.7-30.4,0.8-54,11.6-60.4c2.4-1.4,5.4-2.1,9.1-2.1V26.4c-6.7,0-12.8,1.4-18,4.5C79.8,43.8,74.7,83.9,86.3,134.5
		C36.7,149.8,4.5,174.2,4.5,200s32.4,50.4,82.2,65.7c-11.5,50.7-6.4,91,16.1,103.9c5.1,3,11.2,4.5,17.9,4.5
		c21.9,0,50.6-15.6,79.6-42.7c29,26.9,57.7,42.4,79.6,42.4c6.7,0,12.8-1.4,18-4.5c22.3-12.9,27.4-53.1,15.8-103.6
		C363.3,250.4,395.5,225.8,395.5,200L395.5,200z M291.6,146.9c-2.9,10.2-6.5,20.9-10.7,31.4c-3.2-6.4-6.7-12.8-10.4-19.1
		s-7.5-12.6-11.5-18.7C270.3,142.3,281.3,144.4,291.6,146.9z M255.1,231.7c-6.2,10.7-12.6,20.9-19.1,30.4c-11.8,1-23.9,1.6-36.1,1.6
		c-12,0-24.1-0.5-35.9-1.4c-6.5-9.4-13.1-19.6-19.3-30.3c-6.1-10.4-11.5-21-16.6-31.7c4.9-10.7,10.5-21.4,16.4-31.7
		c6.2-10.7,12.6-20.9,19.1-30.4c11.8-1,23.9-1.6,36.1-1.6c12,0,24.1,0.5,35.9,1.4c6.5,9.4,13.1,19.6,19.3,30.3
		c6.1,10.4,11.5,21,16.6,31.7C266.6,210.7,261.2,221.4,255.1,231.7z M281,221.4c4.3,10.7,8,21.4,11,31.7
		c-10.4,2.6-21.4,4.6-32.9,6.4c3.8-6.1,7.8-12.4,11.5-18.8C274.3,234.3,277.6,227.7,281,221.4L281,221.4z M200.1,306.3
		c-7.3-7.7-14.8-16.1-22.2-25.5c7.2,0.3,14.5,0.5,21.9,0.5c7.5,0,14.8-0.2,22.2-0.5C214.8,290.2,207.4,298.7,200.1,306.3z
		 M140.7,259.5c-11.3-1.6-22.2-3.7-32.7-6.2c2.9-10.2,6.5-20.9,10.7-31.4c3.2,6.4,6.7,12.8,10.4,19.1
		C133.1,247.2,136.9,253.4,140.7,259.5L140.7,259.5z M199.8,93.7c7.3,7.7,14.8,16.1,22.2,25.5c-7.2-0.3-14.5-0.5-21.9-0.5
		c-7.5,0-14.8,0.2-22.2,0.5C184.9,109.8,192.4,101.3,199.8,93.7z M140.7,140.5c-3.8,6.1-7.8,12.4-11.5,18.8
		c-3.7,6.4-7,12.8-10.4,19.1c-4.3-10.7-8-21.4-11-31.7C118.2,144.4,129.2,142.3,140.7,140.5L140.7,140.5z M68.5,240.3
		C40.2,228.4,22,212.6,22,200c0-12.6,18.2-28.4,46.4-40.3c6.9-2.9,14.4-5.6,22-8c4.5,15.6,10.5,31.9,17.9,48.5
		c-7.3,16.6-13.2,32.7-17.7,48.3C83,246.1,75.5,243.4,68.5,240.3L68.5,240.3z M111.4,354.2c-10.8-6.2-15.5-29.8-11.8-60.3
		c0.8-7.5,2.2-15.3,4-23.4c15.6,3.8,32.7,6.7,50.6,8.6c10.7,14.7,21.9,28.1,33.2,39.9c-26,24.1-50.4,37.3-67,37.3
		C116.8,356.2,113.8,355.6,111.4,354.2z M300.6,293.6c3.7,30.4-0.8,54-11.6,60.4c-2.4,1.4-5.4,2.1-9.1,2.1c-16.4,0-41-13.1-67-37.1
		c11.2-11.6,22.3-25,32.9-39.7c18-1.9,35.1-4.8,50.7-8.8C298.2,278.4,299.6,286.1,300.6,293.6z M331.2,240.3c-6.9,2.9-14.4,5.6-22,8
		c-4.5-15.6-10.5-31.9-17.9-48.5c7.3-16.6,13.2-32.7,17.7-48.3c7.8,2.4,15.3,5.1,22.3,8.1c28.2,12,46.4,27.7,46.4,40.3
		C377.8,212.6,359.4,228.4,331.2,240.3L331.2,240.3z"/>
	<ellipse class="st0" cx="199.8" cy="200" rx="36.4" ry="36.3"/>
</g>
</svg>
