<?xml version="1.0" encoding="utf-8"?>
<!-- Generator: Adobe Illustrator 21.1.0, SVG Export Plug-In . SVG Version: 6.00 Build 0)  -->
<svg version="1.1" id="Calque_1" xmlns="http://www.w3.org/2000/svg" xmlns:xlink="http://www.w3.org/1999/xlink" x="0px" y="0px"
	 viewBox="0 0 2500 2500" style="enable-background:new 0 0 2500 2500;" xml:space="preserve">
<style type="text/css">
	.st0{fill:#FFFFFF;}
	.st1{fill:#8ED6FB;}
	.st2{fill:#1C78C0;}
</style>
<path class="st0" d="M1250-96.3l1189.9,673.2v1346.3L1250,2596.3L60.1,1923.2V576.8L1250-96.3z"/>
<path class="st1" d="M2227.4,1876.7l-938.2,530.7v-413.3l584.5-321.6L2227.4,1876.7z M2291.6,1818.6V708.8l-343.3,198.1v713.3
	L2291.6,1818.6L2291.6,1818.6z M268.7,1876.7l938.2,530.7v-413.3l-584.5-321.6L268.7,1876.7L268.7,1876.7z M204.6,1818.6V708.8
	l343.3,198.1v713.3L204.6,1818.6L204.6,1818.6z M244.7,637l962.2-544.4v399.6L590.5,831.3l-4.7,2.7L244.7,637z M2251.5,637
	L1289.3,92.6v399.6l616.4,339.1l4.7,2.7L2251.5,637z"/>
<path class="st2" d="M1206.9,1900.1L630.2,1583V954.7l576.7,333V1900.1 M1289.3,1900.1l576.7-317.1V954.7l-576.7,333V1900.1
	 M669.3,882l578.9-318.4L1827.1,882l-578.9,334.3L669.3,882"/>
</svg>
