<?xml version="1.0" encoding="utf-8"?>
<!-- Generator: Adobe Illustrator 21.1.0, SVG Export Plug-In . SVG Version: 6.00 Build 0)  -->
<svg version="1.1" id="Calque_1" xmlns="http://www.w3.org/2000/svg" xmlns:xlink="http://www.w3.org/1999/xlink" x="0px" y="0px"
	 viewBox="0 0 223.7 224.4" style="enable-background:new 0 0 223.7 224.4;" xml:space="preserve">
<style type="text/css">
	.st0{fill:#80C68B;}
</style>
<g id="Calque_1_1_">
	<g id="XMLID_10_">
		<path id="XMLID_70_" class="st0" d="M91.9,209.7c11,11,29,11,40,0l27.9-27.9H64L91.9,209.7z"/>
		<path id="XMLID_11_" class="st0" d="M209.3,92.3l-77.5-77.5c-11-11-29-11-40,0L14.4,92.3c-11,11-11,29,0,40L58,175.9v-0.4h49.8
			c0-0.1,0-0.2,0-0.4c0.9-25.6-2.5-41.5-6.6-51.2c-1.6-4.5-5.2-13.1-11.9-24.3c-1.9-3.2-4.2-6.7-6.7-10.3c0,0,2.4,5.2,4.5,12.4
			c0.6,2.2,1.2,4.6,1.7,7c0.7,3.8,1.2,7.8,1.1,11.8c-36.2,0-36-59.3-36-59.3s69.1,4.2,53.2,51.1c2.9,4.8,5.8,11.4,7.9,20.2
			c2.6-4.4,5.4-7.6,8.1-10c-8.2-36,46.8-35.9,46.8-35.9s-2.9,47.2-32.8,44.5c1.1-11.7,12.4-23.4,12.4-23.4
			c-5.4,3.5-10.3,8.5-14.3,13.5c-4.5,5.6-7.8,11.1-9.7,14.3c-2.8,3.9-5.5,9.6-7.5,17.5c0.5,6.6,0.6,14,0.3,22.3H166l43.2-43.2
			C220.3,121.2,220.3,103.3,209.3,92.3z"/>
	</g>
</g>
</svg>
