<?xml version="1.0" encoding="utf-8"?>
<!-- Generator: Adobe Illustrator 21.1.0, SVG Export Plug-In . SVG Version: 6.00 Build 0)  -->
<svg version="1.1" id="Calque_1" xmlns="http://www.w3.org/2000/svg" xmlns:xlink="http://www.w3.org/1999/xlink" x="0px" y="0px"
	 viewBox="0 0 528.2 422.6" style="enable-background:new 0 0 528.2 422.6;" xml:space="preserve">
<style type="text/css">
	.st0{fill:#FFFFFF;}
	.st1{fill:#163DF7;}
</style>
<g>
	<path class="st0" d="M0,422.6C0,281.7,0,140.8,0,0c176.1,0,352.2,0,528.2,0c0,140.9,0,281.8,0,422.6C352.1,422.6,176,422.6,0,422.6
		z M360.8,173.8c0.3,3.8,0.6,7.5,0.9,11.2c0.5,5.9,1.1,11.8,1.6,17.8c0.4,5,0.8,10,1.3,15c0.6,6.8,1.2,13.7,1.9,20.5
		c0.5,5,1.4,10,3.2,14.7c2.5,6.7,7,11.3,14.1,12.9c5,1.1,10,0.8,15-0.2c9.1-1.7,15.1-7.5,16.8-16.2c1.2-6.3,1-12.6,0.4-19
		c-0.4-5.1-0.9-10.2-1.4-15.3c-0.4-4-0.7-8-1-12.1c-0.4-5-0.9-10.1-1.4-15.1c-0.4-5-0.8-9.9-1.3-14.9c-0.1-1.2-0.3-2.4-0.4-3.6
		c-0.2-0.1-0.3-0.1-0.4-0.1c-3.6,0.3-7.2,0.6-10.9,0.9c-0.7,0.1-1,0.4-0.9,1.1c0.3,2.9,0.5,5.8,0.8,8.7c0.5,5.1,0.9,10.2,1.4,15.3
		c0.4,4.1,0.7,8.1,1,12.2c0.4,5.1,0.9,10.1,1.4,15.1c0.4,4.3,0.8,8.6,1.1,12.9c0.3,4.3,0.2,8.6-0.9,12.9c-0.7,2.7-2,4.9-4.5,6.2
		c-3.4,1.7-6.9,2.1-10.6,1.2s-5.6-3.8-6.8-7.1c-2.3-6.2-2.6-12.6-3.2-19.1c-0.4-4-0.7-8-1-12.1c-0.4-5.1-0.9-10.3-1.4-15.4
		c-0.3-4-0.7-8-1-11.9c-0.5-5.2-0.9-10.5-1.4-15.7c-0.1-1.8-0.3-1.9-2-1.7c-0.6,0.1-1.2,0.1-1.8,0.2
		C366.7,173.3,363.8,173.6,360.8,173.8z M239.7,195L239.7,195c0-5.6,0-11.1,0-16.7c0-3.9-0.4-7.7-1.5-11.4
		c-2.1-7.4-6.7-12.3-14.4-13.8c-4.8-0.9-9.6-0.9-14.4,0.1c-6.5,1.4-10.8,5.1-13.3,11.3c-1.5,3.8-2.2,7.7-2.3,11.7
		c-0.1,12.2-0.1,24.4,0,36.6c0,4,0.6,7.9,1.9,11.7c2.2,6.7,6.6,11.2,13.6,12.8c4.8,1,9.6,1.1,14.4,0.1c6.3-1.3,10.7-5,13.3-11
		c1.7-4.1,2.5-8.4,2.6-12.8C239.8,207.3,239.7,201.2,239.7,195z M314,219.3c-0.1,0-0.1,0-0.2,0c-3.5,8.4-7,16.8-10.5,25.2
		c-0.1,0.4-0.2,0.8-0.2,1.2c0.6,4.6,1.5,9.1,3.3,13.3c2.7,6.1,6.8,10.6,13.5,12.3c5.3,1.3,10.5,1.1,15.8,0.1
		c8.5-1.6,14.4-6.3,17-14.8c1.9-6.2,1.8-12.5,1.2-18.9c-0.6-6.8-1.2-13.7-1.9-20.5c-0.6-6-1-12-1.7-18c-0.7-5.3-2.3-10.3-5.4-14.7
		c-3-4.3-7.2-6.7-12.2-7.8c-0.9-0.2-1.4,0.1-1.7,1c-0.7,1.8-1.5,3.6-2.2,5.4c-0.4,1-0.9,2.1-1.3,3.3c4.4,0.4,7.1,2.9,8.3,6.8
		c0.8,2.6,1.4,5.4,1.7,8.2c0.5,3.9,0.7,7.8,1.1,11.7c0.5,5.2,0.9,10.3,1.4,15.5c0.3,4,0.8,7.9,1,11.9c0.2,3.9,0.4,7.8,0.1,11.7
		c-0.3,4-2.1,7.3-6.2,8.7c-2.7,1-5.5,1.2-8.4,1c-3.7-0.4-6.4-2.1-7.9-5.6c-0.3-0.8-0.7-1.5-0.9-2.3c-1.3-3.7-1.5-7.5-1.9-11.3
		C315.3,234.8,314.7,227.1,314,219.3z M289.8,174.2c-0.4-4.1-1.1-7.9-2.7-11.5c-2.1-4.7-5.5-7.9-10.5-9.2
		c-5.1-1.3-10.3-1.4-15.4,0.2c-5.5,1.7-9.5,5.3-11.1,11c-1.7,5.6-1.4,11.2,0.5,16.7c1.5,4.3,4.6,7.4,7.9,10.4
		c5.2,4.6,10.4,9.2,15.5,13.9c4.5,4.1,7,9.1,6.1,15.4c-0.5,3.5-2,6.2-5.5,7.2c-4.8,1.4-10.4,0.4-12.9-5.7c-0.2-0.6-0.5-1.1-0.6-1.7
		c-0.8-3.3-1.5-6.6-2.3-10c-3.2,0.9-6.6,1.8-10,2.7c0.3,5.8,1.5,11.2,4.7,16c2.2,3.4,5.2,5.9,9.1,7.1c5.4,1.8,10.9,2,16.4,0.1
		c5.9-2.1,9.8-6.2,11.5-12.3c1.4-5.3,1.2-10.6-0.8-15.7c-2.3-6-6.4-10.7-11.1-14.9c-4.6-4.1-9.2-8.1-13.8-12.1
		c-3.5-3.1-5.5-6.9-5.2-11.7c0.2-4.6,2.5-7.5,7-8.3c1.5-0.3,3-0.3,4.5-0.2c3,0.2,5.3,1.8,6.5,4.6c0.6,1.4,1.1,2.8,1.4,4.3
		c0.5,2,0.7,4.1,1.1,6.3C283.2,175.9,286.4,175.1,289.8,174.2z M157.6,237c0-13,0-26,0-39c0.7,0,1.2,0,1.7,0c3.5,0,7,0.1,10.4-0.1
		c8.5-0.5,14.7-5.7,16.7-14c1.2-4.8,1.1-9.6,0.3-14.4c-0.5-3.2-1.5-6.3-3.3-9c-3.4-5.1-8.6-7-14.3-7.1c-7.6-0.2-15.2-0.1-22.8-0.1
		c-0.1,0-0.3,0.1-0.5,0.1c0,27.9,0,55.7,0,83.7C149.7,237,153.5,237,157.6,237z M91.1,153.3c0.2,0.6,0.4,0.9,0.5,1.3
		c5.4,12.5,10.7,24.9,16.1,37.4c0.4,0.9,0.4,1.6,0,2.5c-5.5,13.7-11,27.5-16.5,41.3c-0.2,0.4-0.3,0.9-0.5,1.4c3.4,0,6.6,0,9.7,0
		c0.8,0,1.2-0.2,1.5-1.1c3.2-8.8,6.5-17.5,9.8-26.3c0.5-1.3,1-2.6,1.6-4.1c0.3,0.6,0.4,0.9,0.6,1.3c4.2,9.7,8.4,19.4,12.6,29.1
		c0.3,0.7,0.7,1,1.5,1c3-0.1,5.9,0,8.9,0c0.3,0,0.6-0.1,0.9-0.1c-0.2-0.4-0.3-0.8-0.4-1.1c-5.8-13.5-11.6-27-17.4-40.5
		c-0.4-0.9-0.4-1.7,0-2.6c5.5-12.7,11-25.5,16.5-38.3c0.2-0.4,0.3-0.8,0.5-1.3c-3.4,0-6.6,0-9.8,0c-0.9,0-1.2,0.3-1.5,1.1
		c-3.4,8.7-6.8,17.3-10.1,26c-0.3,0.7-0.6,1.4-1,2.4c-1.6-3.6-3-7-4.5-10.4c-2.6-6-5.1-12-7.7-17.9c-0.2-0.4-0.7-1-1.1-1
		C98,153.2,94.6,153.3,91.1,153.3z M65.6,198c5.6,0,11.2,0,16.7,0c0-2.8,0-5.5,0-8.4c-5.6,0-11.2,0-16.7,0c0-9.3,0-18.4,0-27.7
		c6.9,0,13.8,0,20.6,0c0-2.9,0-5.8,0-8.6c-10.9,0-21.6,0-32.4,0c0,28,0,55.8,0,83.6c10.9,0,21.8,0,32.6,0c0-2.8,0-5.5,0-8.3
		c-7,0-13.9,0-20.9,0C65.6,218.4,65.6,208.3,65.6,198z M453,236.5c-0.3-3.4-0.5-6.6-0.9-9.9c-0.1-0.8,0.1-1.4,0.6-2
		c3.4-3.9,7-7.6,10.1-11.7c6.6-8.7,9.6-18.5,7.4-29.5c-1.1-5.7-3.6-10.6-8.5-14.1c-4.1-3-8.8-3.9-13.8-3.8
		c-4.8,0.1-9.5,0.9-13.7,3.4c-9.7,5.9-10.8,17.6-7.5,25.9c0.2,0.6,0.5,0.7,1.1,0.5c3.3-1,6.6-1.9,9.9-2.8c0.2,0,0.3-0.2,0.5-0.3
		c-0.3-1.1-0.6-2.1-0.8-3.2c-0.7-3.2-0.8-6.4,1.4-9.1c3-3.7,7.1-4.4,11.4-3.5c4.8,1,7.1,4.5,8,9c1.4,7,0.1,13.7-3.4,19.9
		c-3.6,6.3-8.3,11.8-13.3,17.1c-0.3,0.3-0.7,0.9-0.7,1.3c0.3,4.3,0.7,8.7,1.1,13c0,0.3,0.5,0.7,0.8,0.7
		C446.2,237.1,449.5,236.8,453,236.5z M32.8,237c0-25.1,0-50.1,0-75.1c5,0,9.8,0,14.6,0c0-2.9,0-5.7,0-8.6c-13.9,0-27.8,0-41.6,0
		c0,2.9,0,5.7,0,8.6c5.1,0,10,0,15.2,0c0,25.1,0,50,0,75.1C24.9,237,28.7,237,32.8,237z M397.6,0.3c-0.2,0.5-0.4,0.8-0.5,1.2
		c-22.4,54.1-44.8,108.1-67.3,162.2c-16.3,39.4-32.6,78.7-49,118.1c-16.2,39.1-32.4,78.2-48.6,117.3c-3,7.3-6.1,14.6-9.1,21.9
		c-0.4,1-0.4,1,0.6,1.2C281.9,281.8,340.2,141.3,398.4,0.9C398.2,0.7,398,0.5,397.6,0.3z M367.7,144.5c1,1.4,1.8,2.6,2.6,3.8
		c3.9,5.7,7.7,11.3,11.6,17c0.2,0.3,0.7,0.8,1,0.8c1.8-0.1,3.5-0.3,5.4-0.5c-0.1-0.3-0.1-0.5-0.2-0.7c-2.6-6.8-5.3-13.7-7.9-20.5
		c-0.3-0.7-0.6-0.9-1.3-0.8C375.3,143.8,371.6,144.2,367.7,144.5z M455.8,259.9c0-0.3,0.1-0.5,0.1-0.7c-0.3-3.7-0.6-7.5-1-11.2
		c0-0.2-0.6-0.6-0.9-0.6c-0.9,0-1.7,0.1-2.6,0.2c-2.9,0.3-5.8,0.5-8.7,0.8c-0.1,0.2-0.1,0.3-0.1,0.4c0.3,3.7,0.6,7.5,0.9,11.2
		c0.1,0.9,0.6,1,1.3,0.9C448.5,260.6,452.1,260.3,455.8,259.9z"/>
	<path class="st1" d="M360.8,173.8c2.9-0.3,5.8-0.5,8.7-0.8c0.6-0.1,1.2-0.1,1.8-0.2c1.7-0.2,1.8-0.1,2,1.7
		c0.4,5.3,0.9,10.5,1.4,15.7c0.3,4,0.7,8,1,11.9c0.4,5.1,0.9,10.3,1.4,15.4c0.4,4,0.7,8,1,12.1c0.6,6.4,0.9,12.9,3.2,19.1
		c1.2,3.4,3.1,6.2,6.8,7.1c3.7,0.9,7.2,0.6,10.6-1.2c2.5-1.3,3.8-3.6,4.5-6.2c1.1-4.2,1.2-8.5,0.9-12.9c-0.3-4.3-0.7-8.6-1.1-12.9
		c-0.4-5.1-0.9-10.1-1.4-15.1c-0.4-4.1-0.7-8.1-1-12.2c-0.4-5.1-0.9-10.2-1.4-15.3c-0.3-2.9-0.5-5.8-0.8-8.7c-0.1-0.7,0.1-1,0.9-1.1
		c3.6-0.3,7.2-0.6,10.9-0.9c0.1,0,0.1,0,0.4,0.1c0.1,1.1,0.3,2.4,0.4,3.6c0.4,5,0.8,9.9,1.3,14.9c0.4,5.1,0.9,10.1,1.4,15.1
		c0.4,4,0.7,8,1,12.1c0.4,5.1,0.9,10.2,1.4,15.3c0.5,6.3,0.8,12.7-0.4,19c-1.7,8.7-7.7,14.5-16.8,16.2c-5,0.9-10,1.3-15,0.2
		c-7.1-1.6-11.6-6.2-14.1-12.9c-1.8-4.7-2.7-9.7-3.2-14.7c-0.7-6.8-1.3-13.7-1.9-20.5c-0.4-5-0.8-10-1.3-15
		c-0.5-5.9-1.1-11.8-1.6-17.8C361.4,181.3,361.1,177.6,360.8,173.8z"/>
	<path d="M239.7,195c0,6.2,0.1,12.3,0,18.5c-0.1,4.4-0.9,8.7-2.6,12.8c-2.5,6-6.9,9.7-13.3,11c-4.8,1-9.6,1-14.4-0.1
		c-7.1-1.5-11.4-6-13.6-12.8c-1.3-3.8-1.9-7.7-1.9-11.7c-0.1-12.2-0.1-24.4,0-36.6c0-4,0.8-7.9,2.3-11.7c2.4-6.1,6.8-9.9,13.3-11.3
		c4.8-1,9.6-1,14.4-0.1c7.7,1.5,12.2,6.4,14.4,13.8c1.1,3.7,1.5,7.5,1.5,11.4C239.8,183.9,239.8,189.4,239.7,195L239.7,195z
		 M205.9,195.1h-0.1c0,6.6,0,13.2,0,19.8c0,3,0.4,5.9,1.5,8.7c1,2.4,2.7,4,5.2,4.7c2.4,0.7,4.9,0.7,7.4,0.3c3.5-0.5,5.9-2.5,6.7-5.8
		c0.7-2.6,1.2-5.4,1.2-8.1c0.1-13,0.1-26,0-39c0-2.8-0.7-5.6-1.4-8.3c-0.7-2.8-2.8-4.4-5.6-5.1c-2.4-0.6-4.8-0.6-7.3-0.2
		c-3.4,0.6-5.8,2.4-6.8,5.8c-0.5,1.8-1,3.7-1,5.5C205.8,180.5,205.9,187.8,205.9,195.1z"/>
	<path class="st1" d="M314,219.3c0.7,7.7,1.3,15.5,2,23.2c0.3,3.8,0.6,7.6,1.9,11.3c0.3,0.8,0.6,1.6,0.9,2.3
		c1.5,3.5,4.2,5.2,7.9,5.6c2.8,0.3,5.7,0,8.4-1c4.1-1.5,5.9-4.7,6.2-8.7c0.3-3.9,0.1-7.8-0.1-11.7c-0.2-4-0.6-8-1-11.9
		c-0.5-5.2-0.9-10.3-1.4-15.5c-0.3-3.9-0.6-7.8-1.1-11.7c-0.4-2.8-0.9-5.5-1.7-8.2c-1.2-3.9-3.9-6.3-8.3-6.8
		c0.5-1.2,0.9-2.2,1.3-3.3c0.7-1.8,1.6-3.6,2.2-5.4c0.3-0.9,0.8-1.2,1.7-1c5.1,1.1,9.2,3.5,12.2,7.8c3.1,4.4,4.7,9.4,5.4,14.7
		c0.8,6,1.2,12,1.7,18c0.6,6.8,1.3,13.7,1.9,20.5c0.5,6.3,0.7,12.7-1.2,18.9c-2.6,8.5-8.5,13.1-17,14.8c-5.3,1-10.5,1.2-15.8-0.1
		c-6.7-1.7-10.8-6.2-13.5-12.3c-1.9-4.2-2.8-8.7-3.3-13.3c0-0.4,0-0.8,0.2-1.2c3.5-8.4,7-16.8,10.5-25.2
		C313.9,219.3,314,219.3,314,219.3z"/>
	<path d="M289.8,174.2c-3.3,0.9-6.6,1.8-9.8,2.7c-0.4-2.1-0.6-4.2-1.1-6.3c-0.3-1.5-0.9-2.9-1.4-4.3c-1.2-2.8-3.4-4.4-6.5-4.6
		c-1.5-0.1-3.1-0.1-4.5,0.2c-4.5,0.8-6.7,3.7-7,8.3c-0.2,4.8,1.7,8.6,5.2,11.7c4.6,4,9.2,8,13.8,12.1c4.7,4.2,8.8,8.9,11.1,14.9
		c1.9,5.1,2.2,10.4,0.8,15.7c-1.6,6.1-5.6,10.2-11.5,12.3c-5.4,1.9-10.9,1.7-16.4-0.1c-3.9-1.3-6.8-3.8-9.1-7.1
		c-3.2-4.8-4.3-10.2-4.7-16c3.5-0.9,6.9-1.9,10-2.7c0.8,3.4,1.5,6.7,2.3,10c0.1,0.6,0.4,1.1,0.6,1.7c2.4,6.1,8,7.1,12.9,5.7
		c3.6-1,5.1-3.8,5.5-7.2c0.8-6.3-1.7-11.3-6.1-15.4c-5.1-4.7-10.3-9.3-15.5-13.9c-3.3-2.9-6.4-6.1-7.9-10.4
		c-2-5.5-2.2-11.1-0.5-16.7c1.7-5.6,5.6-9.2,11.1-11c5.1-1.6,10.3-1.6,15.4-0.2c5,1.3,8.4,4.5,10.5,9.2
		C288.6,166.3,289.4,170.1,289.8,174.2z"/>
	<path d="M157.6,237c-4.1,0-7.9,0-11.8,0c0-27.9,0-55.8,0-83.7c0.2,0,0.3-0.1,0.5-0.1c7.6,0,15.2-0.1,22.8,0.1
		c5.8,0.2,10.9,2.1,14.3,7.1c1.8,2.7,2.8,5.8,3.3,9c0.7,4.8,0.9,9.6-0.3,14.4c-2,8.3-8.2,13.5-16.7,14c-3.5,0.2-7,0.1-10.4,0.1
		c-0.5,0-1,0-1.7,0C157.6,211.1,157.6,224,157.6,237z M157.6,189.6c4.1,0,8,0.3,11.9-0.7c3.5-0.8,5.5-3.1,6.2-6.6
		c0.9-4.7,0.7-9.4-0.1-14.1c-0.6-3.5-2.8-5.6-6.3-6.1c-2.2-0.3-4.4-0.4-6.6-0.5c-1.7-0.1-3.4,0-5.1,0
		C157.6,171,157.6,180.2,157.6,189.6z"/>
	<path d="M91.1,153.3c3.6,0,6.9,0,10.3,0c0.4,0,0.9,0.6,1.1,1c2.6,6,5.2,11.9,7.7,17.9c1.5,3.4,2.9,6.8,4.5,10.4
		c0.4-0.9,0.7-1.6,1-2.4c3.4-8.7,6.8-17.3,10.1-26c0.3-0.8,0.7-1.1,1.5-1.1c3.2,0.1,6.4,0,9.8,0c-0.2,0.5-0.3,0.9-0.5,1.3
		c-5.5,12.8-11,25.5-16.5,38.3c-0.4,0.9-0.4,1.7,0,2.6c5.8,13.5,11.6,27,17.4,40.5c0.1,0.3,0.3,0.7,0.4,1.1c-0.4,0-0.7,0.1-0.9,0.1
		c-3,0-5.9,0-8.9,0c-0.8,0-1.2-0.3-1.5-1c-4.2-9.7-8.4-19.4-12.6-29.1c-0.2-0.4-0.3-0.7-0.6-1.3c-0.6,1.5-1.1,2.8-1.6,4.1
		c-3.3,8.7-6.6,17.5-9.8,26.3c-0.3,0.8-0.7,1.1-1.5,1.1c-3.2,0-6.4,0-9.7,0c0.2-0.5,0.3-1,0.5-1.4c5.5-13.8,11-27.5,16.5-41.3
		c0.4-0.9,0.3-1.6,0-2.5c-5.4-12.5-10.7-24.9-16.1-37.4C91.4,154.2,91.3,153.8,91.1,153.3z"/>
	<path d="M65.6,198c0,10.3,0,20.4,0,30.7c7,0,13.9,0,20.9,0c0,2.8,0,5.5,0,8.3c-10.9,0-21.7,0-32.6,0c0-27.8,0-55.7,0-83.6
		c10.8,0,21.5,0,32.4,0c0,2.8,0,5.6,0,8.6c-6.9,0-13.7,0-20.6,0c0,9.3,0,18.4,0,27.7c5.6,0,11.1,0,16.7,0c0,2.8,0,5.5,0,8.4
		C76.7,198,71.2,198,65.6,198z"/>
	<path class="st1" d="M453,236.5c-3.5,0.3-6.8,0.7-10.1,0.9c-0.3,0-0.8-0.4-0.8-0.7c-0.4-4.3-0.8-8.7-1.1-13c0-0.4,0.3-0.9,0.7-1.3
		c5-5.3,9.7-10.8,13.3-17.1c3.5-6.2,4.8-12.8,3.4-19.9c-0.9-4.5-3.3-8-8-9c-4.3-0.9-8.4-0.2-11.4,3.5c-2.2,2.7-2.1,5.9-1.4,9.1
		c0.2,1,0.5,2.1,0.8,3.2c-0.2,0.1-0.3,0.3-0.5,0.3c-3.3,0.9-6.6,1.8-9.9,2.8c-0.6,0.2-0.9,0.1-1.1-0.5c-3.3-8.3-2.2-20.1,7.5-25.9
		c4.2-2.5,8.8-3.3,13.7-3.4c5-0.1,9.7,0.8,13.8,3.8c4.9,3.5,7.3,8.4,8.5,14.1c2.2,11-0.7,20.8-7.4,29.5c-3.1,4.1-6.7,7.8-10.1,11.7
		c-0.6,0.6-0.7,1.2-0.6,2C452.5,229.8,452.8,233.1,453,236.5z"/>
	<path d="M32.8,237c-4,0-7.9,0-11.8,0c0-25,0-50,0-75.1c-5.1,0-10.1,0-15.2,0c0-2.9,0-5.7,0-8.6c13.9,0,27.7,0,41.6,0
		c0,2.8,0,5.7,0,8.6c-4.9,0-9.7,0-14.6,0C32.8,187,32.8,211.9,32.8,237z"/>
	<path d="M397.6,0.3c0.4,0.2,0.6,0.3,0.9,0.5C340.2,141.3,282,281.7,223.8,422.1c-1-0.2-1-0.2-0.6-1.2c3-7.3,6.1-14.6,9.1-21.9
		c16.2-39.1,32.4-78.2,48.6-117.3c16.3-39.4,32.6-78.7,49-118.1c22.4-54.1,44.8-108.1,67.3-162.2C397.2,1.2,397.4,0.8,397.6,0.3z"/>
	<path class="st1" d="M367.7,144.5c3.9-0.3,7.6-0.7,11.2-1c0.7-0.1,1.1,0.1,1.3,0.8c2.6,6.8,5.3,13.7,7.9,20.5
		c0.1,0.2,0.1,0.5,0.2,0.7c-1.8,0.2-3.6,0.4-5.4,0.5c-0.3,0-0.8-0.4-1-0.8c-3.9-5.7-7.7-11.3-11.6-17
		C369.5,147.1,368.6,145.9,367.7,144.5z"/>
	<path class="st1" d="M455.8,259.9c-3.7,0.3-7.3,0.7-10.9,1c-0.7,0.1-1.2,0-1.3-0.9c-0.3-3.7-0.6-7.5-0.9-11.2
		c0-0.1,0.1-0.2,0.1-0.4c2.9-0.3,5.8-0.5,8.7-0.8c0.9-0.1,1.7-0.2,2.6-0.2c0.3,0,0.8,0.4,0.9,0.6c0.4,3.7,0.7,7.5,1,11.2
		C455.9,259.5,455.8,259.7,455.8,259.9z"/>
	<path class="st0" d="M205.9,195.1c0-7.3-0.1-14.5,0-21.8c0-1.8,0.5-3.7,1-5.5c0.9-3.4,3.3-5.2,6.8-5.8c2.4-0.4,4.8-0.4,7.3,0.2
		c2.8,0.7,4.8,2.3,5.6,5.1c0.7,2.7,1.3,5.6,1.4,8.3c0.1,13,0.1,26,0,39c0,2.7-0.6,5.5-1.2,8.1c-0.9,3.4-3.3,5.3-6.7,5.8
		c-2.5,0.4-4.9,0.4-7.4-0.3c-2.5-0.7-4.3-2.2-5.2-4.7c-1.1-2.8-1.5-5.7-1.5-8.7C206,208.2,206,201.6,205.9,195.1
		C205.8,195.1,205.8,195.1,205.9,195.1z"/>
	<path class="st0" d="M157.6,189.6c0-9.4,0-18.6,0-28c1.7,0,3.4-0.1,5.1,0c2.2,0.1,4.4,0.2,6.6,0.5c3.5,0.5,5.7,2.6,6.3,6.1
		c0.8,4.7,1,9.4,0.1,14.1c-0.7,3.5-2.7,5.7-6.2,6.6C165.6,189.9,161.6,189.6,157.6,189.6z"/>
</g>
</svg>
