<?xml version="1.0" encoding="UTF-8"?>
<svg width="182px" height="182px" viewBox="0 0 182 182" version="1.1" xmlns="http://www.w3.org/2000/svg" xmlns:xlink="http://www.w3.org/1999/xlink">
    <!-- Generator: Sketch 48.2 (47327) - http://www.bohemiancoding.com/sketch -->
    <title>Page 1</title>
    <desc>Created with Sketch.</desc>
    <defs>
        <polygon id="path-1" points="0 0.19 181.806 0.19 181.806 181.999586 0 181.999586"></polygon>
    </defs>
    <g id="Desktop-Copy-6" stroke="none" stroke-width="1" fill="none" fill-rule="evenodd" transform="translate(-549.000000, -1003.000000)">
        <g id="Page-1" transform="translate(549.000000, 1002.000000)">
            <g id="Group-3" transform="translate(0.000000, 0.810000)">
                <mask id="mask-2" fill="white">
                    <use xlink:href="#path-1"></use>
                </mask>
                <g id="Clip-2"></g>
                <path d="M3.1442,91.1064 C3.1862,139.3464 41.9842,178.2824 89.8182,178.8444 C138.7222,179.4174 178.1402,140.2024 178.6592,92.1044 C179.1862,43.3594 140.1502,3.9214 92.0242,3.3414 C42.8212,2.7484 3.1452,42.4504 3.1442,91.1064 M181.8072,91.1104 C181.8282,141.4474 140.7742,182.4764 89.9902,181.9954 C40.0382,181.5234 -0.6848,140.5594 0.0082,89.7734 C0.6872,40.0694 41.5062,-0.4816 92.1942,0.1984 C141.7032,0.8634 181.8202,41.2164 181.8072,91.1104" id="Fill-1" fill="#000000" mask="url(#mask-2)"></path>
            </g>
            <path d="M64.1437,113.248 C64.2147,113.285 64.2487,113.319 64.2847,113.319 C66.8887,113.312 69.4947,113.354 72.0947,113.27 C73.2577,113.233 74.3317,112.76 74.9807,111.7 C76.4307,109.332 75.2337,106.411 72.4987,106.122 C69.7787,105.834 67.0137,105.961 64.2687,105.909 C64.2357,105.909 64.2007,105.952 64.1437,105.99 L64.1437,113.248 Z M64.1497,126.888 C64.3087,126.9 64.4277,126.919 64.5477,126.919 C67.0497,126.92 69.5517,126.944 72.0527,126.904 C72.7467,126.894 73.4567,126.763 74.1227,126.566 C75.6587,126.114 76.5987,125.068 76.7527,123.461 C77.0327,120.556 75.9877,119.03 73.6747,118.414 C73.3567,118.33 73.0267,118.249 72.7007,118.246 C69.8897,118.222 67.0797,118.216 64.2697,118.207 C64.2357,118.207 64.2017,118.247 64.1497,118.279 L64.1497,126.888 Z M57.0937,132.388 L57.0937,100.404 L57.7977,100.404 C62.6987,100.404 67.5987,100.381 72.4987,100.415 C74.4047,100.428 76.2957,100.628 78.0877,101.37 C80.5487,102.388 81.9377,104.236 82.2317,106.861 C82.3377,107.817 82.3307,108.806 82.2197,109.762 C81.9767,111.86 80.7827,113.366 79.0337,114.473 C78.8937,114.56 78.7477,114.64 78.6057,114.724 C78.4687,114.805 78.3317,114.887 78.1287,115.008 C78.2777,115.078 78.3597,115.127 78.4477,115.158 C81.8927,116.376 83.7487,119.051 83.8667,122.73 C84.0257,127.757 81.0047,130.924 76.2757,131.995 C75.1547,132.249 73.9847,132.39 72.8357,132.399 C67.7497,132.442 62.6637,132.418 57.5767,132.417 C57.4347,132.417 57.2917,132.4 57.0937,132.388 Z" id="Fill-6" fill="#000000"></path>
            <path d="M84.2228,56.1845 L77.4358,56.1845 C77.3998,55.9675 77.3608,55.7675 77.3338,55.5655 C77.0628,53.5065 75.8958,52.2215 73.9098,51.7105 C72.3288,51.3035 70.7138,51.1985 69.1248,51.6405 C67.6828,52.0415 66.6048,52.8745 66.3158,54.4545 C66.0698,55.7965 66.5328,56.8705 67.7768,57.4155 C68.9428,57.9275 70.1668,58.3285 71.3968,58.6705 C73.6638,59.3035 75.9618,59.8265 78.2308,60.4555 C80.0308,60.9555 81.6218,61.8615 82.9498,63.1965 C85.4718,65.7345 85.7908,68.7845 84.8938,72.0495 C84.1128,74.8935 82.2008,76.8565 79.5258,77.9335 C74.3128,80.0335 69.0448,80.0375 63.9588,77.5735 C60.2958,75.7995 58.4868,72.6745 58.3688,68.5945 C58.3648,68.4325 58.3838,68.2695 58.3948,68.0605 L65.1608,68.0605 C65.1898,68.3105 65.2178,68.5545 65.2438,68.7995 C65.4588,70.9045 66.5478,72.4095 68.4858,73.2025 C70.9558,74.2125 73.4938,74.2195 75.9938,73.2905 C77.8008,72.6185 78.6508,71.2255 78.4458,69.5065 C78.3618,68.7975 78.1028,68.1335 77.5068,67.7555 C76.6088,67.1855 75.6848,66.5835 74.6868,66.2585 C72.6458,65.5965 70.5468,65.1155 68.4758,64.5485 C66.6598,64.0505 64.8878,63.4535 63.2518,62.4765 C58.2738,59.5065 58.5138,52.7435 61.8838,49.4275 C64.2248,47.1245 67.1038,46.1475 70.2808,45.9405 C73.3288,45.7415 76.3238,46.0725 79.0828,47.5065 C82.4448,49.2535 84.1568,52.0605 84.2408,55.8525 C84.2438,55.9515 84.2308,56.0495 84.2228,56.1845" id="Fill-7" fill="#000000"></path>
            <path d="M97.7219,132.4179 C98.8109,130.7729 99.8209,129.2429 100.8359,127.7169 C103.3899,123.8809 105.9379,120.0419 108.5119,116.2199 C108.7999,115.7909 108.7919,115.5079 108.5059,115.0869 C105.3389,110.4429 102.1939,105.7859 99.0429,101.1309 C98.9079,100.9309 98.7799,100.7249 98.5959,100.4409 C98.8769,100.4249 99.0709,100.4049 99.2649,100.4049 C101.5589,100.4029 103.8539,100.4159 106.1479,100.3929 C106.5969,100.3879 106.8479,100.5299 107.0809,100.9159 C108.9569,104.0069 110.8569,107.0839 112.7499,110.1639 C112.8219,110.2799 112.9049,110.3899 113.0299,110.5719 C113.6749,109.5629 114.2849,108.6129 114.8909,107.6599 C116.3219,105.4109 117.7609,103.1669 119.1709,100.9049 C119.4089,100.5219 119.6649,100.3879 120.1119,100.3929 C122.2399,100.4169 124.3679,100.4039 126.4969,100.4039 L127.2509,100.4039 C123.7919,105.5559 120.4039,110.6049 116.9829,115.7009 C120.6679,121.2229 124.3579,126.7499 128.1169,132.3819 C127.8199,132.3969 127.6119,132.4169 127.4029,132.4169 C125.1089,132.4189 122.8139,132.3879 120.5209,132.4389 C119.8819,132.4519 119.5699,132.2099 119.2579,131.7099 C117.2459,128.4829 115.2079,125.2739 113.1779,122.0609 C113.0579,121.8709 112.9279,121.6879 112.7469,121.4209 C112.5709,121.6789 112.4219,121.8859 112.2849,122.0999 C110.1809,125.3649 108.0729,128.6279 105.9849,131.9039 C105.7469,132.2769 105.5019,132.4339 105.0489,132.4299 C102.6529,132.4059 100.2559,132.4179 97.7219,132.4179" id="Fill-8" fill="#000000"></path>
            <polygon id="Fill-9" fill="#000000" points="109.492 78.632 116.465 78.632 116.465 46.679 109.492 46.679"></polygon>
        </g>
    </g>
</svg>