<svg width="1848" height="1848" viewBox="0 0 1848 1848" xmlns="http://www.w3.org/2000/svg"><title>Plan de travail 5</title><g fill-rule="nonzero" fill="none"><circle stroke="#FFFEF6" fill="#7CA6F9" cx="923.99" cy="923.99" r="923.5"/><path d="M1375.9 1311.28c-214.56 244.54-571.46 282.23-816 67.67-244.54-214.56-268.84-586.73-54.28-831.26l870.28 763.59z" fill="#0F0A00"/><path d="M1355.62 475.86c-48.1-42.17-102-77.6-160.75-103.09-29.79-12.93-60.19-24.11-91.6-32.42a654.06 654.06 0 0 0-94.43-17.18c-61-6.85-122.59-3.74-182.89 7.27-60.72 11.09-119.73 31.87-174.52 60.23a623 623 0 0 0-152.79 112c-46.12 46-85.74 99.65-114.88 158-27.9 55.86-47.54 115.82-56.13 177.72-4.45 32-7.06 64.09-6.41 96.44a627 627 0 0 0 9.77 96.25c10.82 61.35 32 120.88 60.61 176.15 29.84 57.56 69.14 110.69 114.59 156.87a647.78 647.78 0 0 0 34.22 32.34c6.89 6.07 15.91 11 25.46 10.54 9.19-.41 19.17-3.4 25.46-10.54l20.53-23.36 55.65-63.32 82.25-93.58L850.05 1102l109.88-125 111.23-126.56 103.1-117.3 87.63-99.7 62.64-71.27c9.95-11.32 19.93-22.6 29.84-33.95l1.26-1.43c6.35-7.22 10.54-15.61 10.54-25.46 0-8.83-3.92-19.38-10.54-25.46-13.61-12.49-37.64-15.11-50.91 0l-20.53 23.36-55.65 63.32-82.25 93.58L1046 770.27l-109.88 125-111.27 126.57-103.1 117.3-87.63 99.7-62.64 71.27c-9.94 11.31-20 22.54-29.84 33.95l-1.26 1.43h50.92a648.11 648.11 0 0 1-83.8-89.06l5.63 7.29a613.51 613.51 0 0 1-79.29-135.24l3.63 8.6A584.39 584.39 0 0 1 396.83 989l1.29 9.57a561.09 561.09 0 0 1-.12-147.93l-1.29 9.57A551.31 551.31 0 0 1 434.56 721l-3.63 8.6a569.06 569.06 0 0 1 73.75-126l-5.63 7.29a599.73 599.73 0 0 1 107-106.95l-7.29 5.63A594.23 594.23 0 0 1 730 433l-8.6 3.63a599.45 599.45 0 0 1 151.77-41.26l-9.57 1.29a599.83 599.83 0 0 1 158 0l-9.57-1.29a591.43 591.43 0 0 1 150 40.93l-8.6-3.63A589.28 589.28 0 0 1 1283 508.48l-7.29-5.63a606.573 606.573 0 0 1 29 23.92c7.24 6.34 15.59 10.54 25.46 10.54 8.83 0 19.38-3.92 25.46-10.54 12.47-13.59 15.11-37.65-.01-50.91z" fill="#FFF"/></g></svg>