<?xml version="1.0" encoding="utf-8"?>
<!-- Generator: Adobe Illustrator 21.1.0, SVG Export Plug-In . SVG Version: 6.00 Build 0)  -->
<svg version="1.1" id="_x34_c34cae2-cec2-4d3a-b3bf-42e5b116f40c"
	 xmlns="http://www.w3.org/2000/svg" xmlns:xlink="http://www.w3.org/1999/xlink" x="0px" y="0px" viewBox="0 0 194.6 75.6"
	 style="enable-background:new 0 0 194.6 75.6;" xml:space="preserve">
<title>logo</title>
<g id="_x35_bb73972-c0ca-42ac-943e-e7839ed2106f">
	<g id="_x30_61badfb-1b5e-4955-87fe-166e78dd17fd">
		<g>
			<path d="M59.2,29.7v11.8h-4v-9.9c0-2.3-0.5-4.7-3.3-4.7c-2.6,0-3.5,2.5-3.5,4.7v9.9h-4V22.8h4v2.8c0.8-1.9,2.7-3.2,4.8-3.2
				C57.7,22.4,59.2,25.7,59.2,29.7z"/>
			<path d="M78.7,30.6c0,0.8,0,1.5,0,2.3H67c-0.2,2.8,1.9,5.1,4.7,5.3c0.1,0,0.2,0,0.3,0c1.9,0,3.6-0.8,4.9-2.2l1.6,3
				c-1.4,1.8-4.2,2.7-6.5,2.7c-5.6,0-9-4.5-9-9.9c0-5,2.8-9.6,8.2-9.6C76,22.4,78.7,26,78.7,30.6z M67.2,29.8h7.7
				c0.1-2-1.4-3.7-3.4-3.8c-0.1,0-0.3,0-0.4,0c-2.1-0.1-3.9,1.5-4,3.6C67.2,29.7,67.2,29.7,67.2,29.8L67.2,29.8z"/>
			<path d="M95.5,22.8l-5.3,8.8l5.9,9.9h-4.2l-4-6.3l-4,6.3h-4.4l6.1-9.9l-5.2-8.8h4l3.5,5.6l3.5-5.6H95.5z"/>
			<path d="M101,35.2v-8.9h-2.7v-3.5h2.7v-4.9h3.9v4.9h5.4v3.5h-5.4V34c0,1.5-0.1,4.1,2.1,4.1c0.6,0,1.2-0.3,1.7-0.6l1.4,3.1
				c-1.1,0.8-2.4,1.2-3.7,1.3C102.6,41.8,101,38.6,101,35.2z"/>
			<path d="M123.9,35.2v-8.9h-2.7v-3.5h2.7v-4.9h3.9v4.9h5.4v3.5h-5.4V34c0,1.5-0.1,4.1,2.1,4.1c0.6,0,1.2-0.3,1.7-0.6l1.4,3.1
				c-1.1,0.8-2.4,1.2-3.7,1.3C125.5,41.8,123.9,38.6,123.9,35.2z"/>
			<path d="M137.8,20.7c-1.3,0-2.3-1.1-2.2-2.4c0-1.3,1.1-2.3,2.4-2.2c1.2,0,2.2,1.1,2.2,2.3C140.2,19.6,139.2,20.7,137.8,20.7
				C137.9,20.7,137.9,20.7,137.8,20.7z M139.8,41.5h-4V22.8h4V41.5z"/>
			<path d="M159.9,26c0.8-2.3,2.9-3.7,5.3-3.6c4.3,0,6,3.5,6,7.3v11.8h-4v-9.9c0-2.3-0.4-4.7-3.2-4.7c-4,0-3.5,5.2-3.5,7.9v6.7h-4
				v-9.9c0-2.3-0.4-4.7-3.2-4.7c-2.6,0-3.5,2.5-3.5,4.7v9.9h-4V22.8h4v2.7c0.9-1.8,2.7-3,4.7-3.1C156.9,22.2,159.2,23.7,159.9,26z"
				/>
			<path d="M190.7,30.6c0,0.8,0,1.5,0,2.3h-11.7c-0.2,2.8,1.9,5.1,4.7,5.3c0.1,0,0.2,0,0.3,0c1.9,0,3.6-0.8,4.9-2.2l1.6,3
				c-1.4,1.8-4.2,2.7-6.5,2.7c-5.6,0-9-4.5-9-9.9c0-5,2.8-9.6,8.2-9.6C188,22.4,190.7,26,190.7,30.6z M179.2,29.8h7.7
				c0.1-2-1.4-3.7-3.4-3.8c-0.1,0-0.3,0-0.4,0c-2.1-0.1-3.9,1.6-4,3.7C179.2,29.7,179.2,29.7,179.2,29.8L179.2,29.8z"/>
		</g>
		<g>
			<path d="M3.2,6.5l0.2-1.4h14l-0.2,1.4H11l-2.4,17H7.1l2.4-17H3.2z"/>
			<path d="M31.1,12.6c0,0.5,0,1.1-0.1,1.6l-1.3,9.3h-1.4l1.1-7.9c0.1-0.7,0.2-1.4,0.1-2.1c0-2.4-0.8-4-3.5-4c-3.2,0-4.6,3.4-5,6.1
				L20,23.5h-1.4l2.9-21H23l-1.2,8.6c0.9-1.9,2.7-3.1,4.8-3.1C29.6,7.9,31.1,9.7,31.1,12.6z"/>
			<path d="M34.5,17.4c0,2.6,1.5,5,4.3,5c1.6,0,3.1-0.6,4.3-1.7l0.5,1.2c-1.5,1.2-3.3,1.9-5.2,1.9c-3.7,0-5.5-2.8-5.5-6.2
				c0-4.6,2.7-9.6,7.8-9.6c2.1-0.2,4,1.4,4.2,3.6c0,0.1,0,0.2,0,0.3c0,3.6-3.5,4.7-6.5,4.7c-1.4,0-2.7-0.4-3.8-1.1
				C34.6,16,34.5,16.7,34.5,17.4z M35.1,14.1c1,0.7,2.3,1.1,3.6,1.1c2.1,0,4.9-0.8,4.9-3.4c0-1.5-1.3-2.7-2.8-2.7
				c-0.1,0-0.2,0-0.2,0C37.6,9.2,36,11.5,35.1,14.1L35.1,14.1z"/>
		</g>
	</g>
</g>
</svg>
